<svg width="42" height="42" viewBox="0 0 42 42" fill="none" xmlns="http://www.w3.org/2000/svg">
<path d="M21.035 3.5C30.975 3.5 38.5 11.6497 38.5 20.9737C38.5 31.7874 29.68 38.5 21 38.5C18.13 38.5 14.945 37.7289 12.39 36.2216C11.4975 35.6783 10.745 35.2752 9.7825 35.5906L6.2475 36.6422C5.355 36.9226 4.55 36.2216 4.8125 35.2752L5.985 31.3493C6.1775 30.806 6.1425 30.2276 5.8625 29.7719C4.3575 27.0028 3.5 23.9707 3.5 21.0263C3.5 11.8075 10.8675 3.5 21.035 3.5ZM29.0325 18.8005C27.79 18.8005 26.7925 19.7995 26.7925 21.0438C26.7925 22.2707 27.79 23.2872 29.0325 23.2872C30.275 23.2872 31.2725 22.2707 31.2725 21.0438C31.2725 19.7995 30.275 18.8005 29.0325 18.8005ZM20.965 18.8005C19.74 18.7829 18.725 19.7995 18.725 21.0263C18.725 22.2707 19.7225 23.2697 20.965 23.2872C22.2075 23.2872 23.205 22.2707 23.205 21.0438C23.205 19.7995 22.2075 18.8005 20.965 18.8005ZM12.8975 18.8005C11.655 18.8005 10.6575 19.7995 10.6575 21.0438C10.6575 22.2707 11.6725 23.2872 12.8975 23.2872C14.14 23.2697 15.1375 22.2707 15.1375 21.0438C15.1375 19.7995 14.14 18.8005 12.8975 18.8005Z" fill="white"/>
</svg>
