<svg width="25" height="25" viewBox="0 0 25 25" fill="none" xmlns="http://www.w3.org/2000/svg">
<path fill-rule="evenodd" clip-rule="evenodd" d="M16.0709 2.52846C19.2149 2.52846 21.3269 4.68146 21.3269 7.88546V17.0815C21.3269 20.3135 19.2799 22.4155 16.1119 22.4355L8.41887 22.4385C5.27487 22.4385 3.16187 20.2855 3.16187 17.0815V7.88546C3.16187 4.65246 5.20887 2.55146 8.37687 2.53246L16.0699 2.52846H16.0709ZM16.0709 4.02846L8.38187 4.03246C6.05386 4.04646 4.66187 5.48646 4.66187 7.88546V17.0815C4.66187 19.4965 6.06687 20.9385 8.41787 20.9385L16.1069 20.9355C18.4349 20.9215 19.8269 19.4795 19.8269 17.0815V7.88546C19.8269 5.47046 18.4229 4.02846 16.0709 4.02846ZM15.878 16.0022C16.292 16.0022 16.628 16.3382 16.628 16.7522C16.628 17.1662 16.292 17.5022 15.878 17.5022H8.65797C8.24397 17.5022 7.90797 17.1662 7.90797 16.7522C7.90797 16.3382 8.24397 16.0022 8.65797 16.0022H15.878ZM15.878 11.8157C16.292 11.8157 16.628 12.1517 16.628 12.5657C16.628 12.9797 16.292 13.3157 15.878 13.3157H8.65797C8.24397 13.3157 7.90797 12.9797 7.90797 12.5657C7.90797 12.1517 8.24397 11.8157 8.65797 11.8157H15.878ZM11.4127 7.63886C11.8267 7.63886 12.1627 7.97486 12.1627 8.38886C12.1627 8.80286 11.8267 9.13886 11.4127 9.13886H8.65767C8.24367 9.13886 7.90767 8.80286 7.90767 8.38886C7.90767 7.97486 8.24367 7.63886 8.65767 7.63886H11.4127Z" fill="black"/>
</svg>
