<svg width="42" height="42" viewBox="0 0 42 42" fill="none" xmlns="http://www.w3.org/2000/svg">
<path d="M28.3342 3.5C33.74 3.5 36.75 6.615 36.75 11.9525V30.03C36.75 35.455 33.74 38.5 28.3342 38.5H13.6675C8.3475 38.5 5.25 35.455 5.25 30.03V11.9525C5.25 6.615 8.3475 3.5 13.6675 3.5H28.3342ZM14.14 27.545C13.615 27.4925 13.1075 27.7375 12.8275 28.1925C12.5475 28.63 12.5475 29.2075 12.8275 29.6625C13.1075 30.1 13.615 30.3625 14.14 30.2925H27.86C28.5583 30.2225 29.085 29.6258 29.085 28.9275C29.085 28.21 28.5583 27.615 27.86 27.545H14.14ZM27.86 19.5633H14.14C13.3857 19.5633 12.775 20.1775 12.775 20.93C12.775 21.6825 13.3857 22.295 14.14 22.295H27.86C28.6125 22.295 29.225 21.6825 29.225 20.93C29.225 20.1775 28.6125 19.5633 27.86 19.5633ZM19.3708 11.6375H14.14V11.655C13.3857 11.655 12.775 12.2675 12.775 13.02C12.775 13.7725 13.3857 14.385 14.14 14.385H19.3708C20.125 14.385 20.7375 13.7725 20.7375 13.0008C20.7375 12.25 20.125 11.6375 19.3708 11.6375Z" fill="white"/>
</svg>
