<svg width="25" height="25" viewBox="0 0 25 25" fill="none" xmlns="http://www.w3.org/2000/svg">
<path fill-rule="evenodd" clip-rule="evenodd" d="M20.779 21.0466C21.193 21.0466 21.529 21.3826 21.529 21.7966C21.529 22.2106 21.193 22.5466 20.779 22.5466H13.526C13.112 22.5466 12.776 22.2106 12.776 21.7966C12.776 21.3826 13.112 21.0466 13.526 21.0466H20.779ZM16.1448 4.26069C16.1948 4.29969 17.8678 5.59969 17.8678 5.59969C18.4758 5.96169 18.9508 6.60869 19.1308 7.37469C19.3098 8.13269 19.1798 8.91469 18.7628 9.57569C18.76 9.5801 18.7573 9.58445 18.7476 9.59741L18.7401 9.60743C18.6724 9.69663 18.3782 10.0687 16.8931 11.9293C16.8793 11.9537 16.8637 11.9765 16.8466 11.9987C16.8216 12.0314 16.7943 12.0615 16.7653 12.0889C16.664 12.2164 16.557 12.3504 16.4445 12.4913L16.2166 12.7768C15.7463 13.3657 15.1884 14.0641 14.5266 14.8925L14.187 15.3176C12.9093 16.9168 11.273 18.9643 9.17684 21.5867C8.71784 22.1587 8.02984 22.4917 7.29084 22.5007L3.65184 22.5467H3.64184C3.29484 22.5467 2.99284 22.3087 2.91184 21.9697L2.09284 18.4987C1.92384 17.7797 2.09184 17.0377 2.55284 16.4617L11.9728 4.67969C11.9768 4.67569 11.9798 4.67069 11.9838 4.66669C13.0168 3.43169 14.8848 3.24969 16.1448 4.26069ZM10.9226 8.39405L3.72384 17.3987C3.55284 17.6127 3.48984 17.8887 3.55284 18.1537L4.23384 21.0387L7.27284 21.0007C7.56184 20.9977 7.82884 20.8687 8.00584 20.6487C8.91732 19.5083 10.0629 18.0749 11.2407 16.6011L11.6574 16.0796L12.0748 15.5573C13.1794 14.1749 14.2706 12.8091 15.1837 11.6659L10.9226 8.39405ZM13.1388 5.62369L11.8596 7.22205L16.1203 10.493C16.9405 9.46575 17.48 8.78919 17.5298 8.72469C17.6938 8.45869 17.7578 8.08269 17.6718 7.72069C17.5838 7.34969 17.3528 7.03469 17.0198 6.83369C16.9488 6.78469 15.2638 5.47669 15.2118 5.43569C14.5778 4.92769 13.6528 5.01569 13.1388 5.62369Z" fill="black"/>
</svg>
