<svg width="25" height="25" viewBox="0 0 25 25" fill="none" xmlns="http://www.w3.org/2000/svg">
<path fill-rule="evenodd" clip-rule="evenodd" d="M13.8352 16.2054C15.0392 16.2054 16.0192 17.1784 16.0192 18.3744V21.4504C16.0192 21.7074 16.2252 21.9134 16.4892 21.9194H18.3952C19.8972 21.9194 21.1182 20.7134 21.1182 19.2314V10.5074C21.1112 9.99743 20.8682 9.51743 20.4512 9.19843L13.8582 3.94043C12.9732 3.23943 11.7352 3.23943 10.8472 3.94243L4.29916 9.19643C3.86616 9.52543 3.62316 10.0054 3.61816 10.5244V19.2314C3.61816 20.7134 4.83916 21.9194 6.34116 21.9194H8.26516C8.53616 21.9194 8.75616 21.7044 8.75616 21.4404C8.75616 21.3824 8.76316 21.3244 8.77516 21.2694V18.3744C8.77516 17.1854 9.74916 16.2134 10.9442 16.2054H13.8352ZM18.3952 23.4194H16.4712C15.3692 23.3934 14.5192 22.5284 14.5192 21.4504V18.3744C14.5192 18.0054 14.2122 17.7054 13.8352 17.7054H10.9492C10.5802 17.7074 10.2752 18.0084 10.2752 18.3744V21.4404C10.2752 21.5154 10.2652 21.5874 10.2442 21.6554C10.1362 22.6454 9.29016 23.4194 8.26516 23.4194H6.34116C4.01216 23.4194 2.11816 21.5404 2.11816 19.2314V10.5174C2.12816 9.52344 2.58616 8.61343 3.37716 8.01443L9.91216 2.76943C11.3512 1.62943 13.3562 1.62943 14.7922 2.76743L21.3742 8.01744C22.1472 8.60644 22.6052 9.51444 22.6182 10.4964V19.2314C22.6182 21.5404 20.7242 23.4194 18.3952 23.4194Z" fill="black"/>
</svg>
