<svg width="25" height="25" viewBox="0 0 25 25" fill="none" xmlns="http://www.w3.org/2000/svg">
<path fill-rule="evenodd" clip-rule="evenodd" d="M16.9986 2.06775C20.3876 2.06775 22.6646 4.44575 22.6646 7.98375V16.1517C22.6646 19.6897 20.3876 22.0677 16.9966 22.0677H8.32855C4.94055 22.0677 2.66455 19.6897 2.66455 16.1517V7.98375C2.66455 4.44575 4.94055 2.06775 8.32855 2.06775H16.9986ZM16.9986 3.56775H8.32855C5.79955 3.56775 4.16455 5.30075 4.16455 7.98375V16.1517C4.16455 18.8347 5.79955 20.5677 8.32855 20.5677H16.9966C19.5286 20.5677 21.1646 18.8347 21.1646 16.1517V7.98375C21.1646 5.30075 19.5286 3.56775 16.9986 3.56775ZM12.6586 11.3177C13.0726 11.3177 13.4086 11.6537 13.4086 12.0677V16.0677C13.4086 16.4817 13.0726 16.8177 12.6586 16.8177C12.2446 16.8177 11.9086 16.4817 11.9086 16.0677V12.0677C11.9086 11.6537 12.2446 11.3177 12.6586 11.3177ZM12.6635 7.27185C13.2165 7.27185 13.6635 7.71885 13.6635 8.27185C13.6635 8.82485 13.2165 9.27185 12.6635 9.27185C12.1105 9.27185 11.6585 8.82485 11.6585 8.27185C11.6585 7.71885 12.1015 7.27185 12.6535 7.27185H12.6635Z" fill="black"/>
</svg>
