<svg width="32" height="32" viewBox="0 0 32 32" fill="none" xmlns="http://www.w3.org/2000/svg">
<path d="M22.5859 4C24.3739 4 26.0939 4.70667 27.3592 5.97467C28.6259 7.24 29.3339 8.94667 29.3339 10.7333V21.2667C29.3339 24.9867 26.3072 28 22.5859 28H9.4139C5.69257 28 2.66724 24.9867 2.66724 21.2667V10.7333C2.66724 7.01333 5.67924 4 9.4139 4H22.5859ZM24.0939 10.9333C23.8139 10.9187 23.5472 11.0133 23.3459 11.2L17.3339 16C16.5606 16.6413 15.4526 16.6413 14.6672 16L8.66724 11.2C8.25257 10.8933 7.67924 10.9333 7.3339 11.2933C6.9739 11.6533 6.9339 12.2267 7.23924 12.6267L7.4139 12.8L13.4806 17.5333C14.2272 18.12 15.1326 18.44 16.0806 18.44C17.0259 18.44 17.9472 18.12 18.6926 17.5333L24.7072 12.72L24.8139 12.6133C25.1326 12.2267 25.1326 11.6667 24.7992 11.28C24.6139 11.0813 24.3592 10.96 24.0939 10.9333Z" fill="white"/>
</svg>
