<svg width="42" height="42" viewBox="0 0 42 42" fill="none" xmlns="http://www.w3.org/2000/svg">
<path d="M23.1918 3.5C23.6423 3.5 23.9889 3.8675 23.9889 4.305V9.94C23.9889 13.1425 26.6052 15.7675 29.776 15.785C31.0928 15.785 32.1324 15.8025 32.9295 15.8025L33.2247 15.8012C33.7573 15.7972 34.4744 15.785 35.0953 15.785C35.5285 15.785 35.875 16.135 35.875 16.5725V30.6425C35.875 34.9825 32.3923 38.5 28.0953 38.5H14.3032C9.79827 38.5 6.125 34.8075 6.125 30.2575V11.3925C6.125 7.0525 9.625 3.5 13.9394 3.5H23.1918ZM25.0458 26.075H15.62C14.9097 26.075 14.3205 26.6525 14.3205 27.37C14.3205 28.0875 14.9097 28.6825 15.62 28.6825H25.0458C25.7562 28.6825 26.3453 28.0875 26.3453 27.37C26.3453 26.6525 25.7562 26.075 25.0458 26.075ZM21.4765 17.325H15.62C14.9097 17.325 14.3205 17.92 14.3205 18.6375C14.3205 19.355 14.9097 19.9325 15.62 19.9325H21.4765C22.1869 19.9325 22.776 19.355 22.776 18.6375C22.776 17.92 22.1869 17.325 21.4765 17.325ZM26.5137 5.0855C26.5137 4.33125 27.4199 3.95675 27.938 4.501C29.811 6.468 33.084 9.90675 34.9137 11.8283C35.4197 12.3585 35.0489 13.2388 34.3194 13.2405C32.8951 13.2458 31.2162 13.2405 30.0085 13.2283C28.0922 13.2283 26.5137 11.634 26.5137 9.6985V5.0855Z" fill="white"/>
</svg>
