<svg width="100" height="100" viewBox="0 0 100 100" fill="none" xmlns="http://www.w3.org/2000/svg">
<path d="M66.2834 51.5458H85.825C85.4917 71.0042 81.6584 74.2125 69.7 81.2958C68.325 82.1292 67.8667 83.8792 68.7 85.2958C69.5334 86.6708 71.2834 87.1292 72.7 86.2958C86.7834 77.9625 91.7 72.8792 91.7 48.6292V26.1708C91.7 19.0458 85.9084 13.2958 78.825 13.2958H66.325C58.9917 13.2958 53.45 18.8375 53.45 26.1708V38.6708C53.4084 46.0042 58.95 51.5458 66.2834 51.5458ZM21.2084 51.5458H40.75C40.4167 71.0042 36.5834 74.2125 24.625 81.2958C23.25 82.1292 22.7917 83.8792 23.625 85.2958C24.4584 86.6708 26.2084 87.1292 27.625 86.2958C41.7084 77.9625 46.625 72.8792 46.625 48.6292V26.1708C46.625 19.0458 40.8334 13.2958 33.75 13.2958H21.25C13.875 13.2958 8.33337 18.8375 8.33337 26.1708V38.6708C8.33337 46.0042 13.875 51.5458 21.2084 51.5458Z" fill="#F6E7FD"/>
</svg>
