<svg width="90" height="90" viewBox="0 0 90 90" fill="none" xmlns="http://www.w3.org/2000/svg">
<path d="M30.3375 43.6162H12.75C13.05 26.1037 16.5 23.2163 27.2625 16.8413C28.5 16.0913 28.9125 14.5163 28.1625 13.2413C27.9898 12.946 27.76 12.6882 27.4866 12.4827C27.2131 12.2772 26.9015 12.1283 26.5699 12.0445C26.2383 11.9607 25.8933 11.9438 25.5551 11.9948C25.2169 12.0457 24.8922 12.1635 24.6 12.3413C11.925 19.8413 7.5 24.4163 7.5 46.2038V66.4163C7.5 72.8288 12.7125 78.0038 19.0875 78.0038H30.3375C36.9375 78.0038 41.925 73.0163 41.925 66.4163V55.1663C41.925 48.6038 36.9375 43.6162 30.3375 43.6162ZM70.9087 43.6162H53.3212C53.6212 26.1037 57.0713 23.2163 67.8337 16.8413C69.0712 16.0913 69.4837 14.5163 68.7337 13.2413C68.5571 12.9451 68.3236 12.6868 68.0468 12.4812C67.77 12.2756 67.4553 12.1267 67.1208 12.0431C66.7863 11.9594 66.4385 11.9427 66.0975 11.9939C65.7565 12.0451 65.429 12.1631 65.1337 12.3413C52.4587 19.8413 48.0337 24.4163 48.0337 46.2413V66.4538C48.0337 72.8663 53.2462 78.0413 59.6212 78.0413H70.8712C77.4712 78.0413 82.4587 73.0538 82.4587 66.4538V55.2038C82.4962 48.6037 77.5087 43.6162 70.9087 43.6162Z" fill="#F6E7FD"/>
</svg>
