<svg width="42" height="42" viewBox="0 0 42 42" fill="none" xmlns="http://www.w3.org/2000/svg">
<path d="M21 3.50018C30.6775 3.50018 38.5 11.3402 38.5 21.0002C38.5 30.6777 30.6775 38.5002 21 38.5002C11.34 38.5002 3.5 30.6777 3.5 21.0002C3.5 11.3402 11.34 3.50018 21 3.50018ZM20.3875 12.1277C19.67 12.1277 19.075 12.7052 19.075 13.4402V22.2777C19.075 22.7327 19.32 23.1527 19.7225 23.3977L26.5825 27.4927C26.7925 27.6152 27.02 27.6852 27.265 27.6852C27.7025 27.6852 28.14 27.4577 28.385 27.0377C28.7525 26.4252 28.56 25.6202 27.93 25.2352L21.7 21.5252V13.4402C21.7 12.7052 21.105 12.1277 20.3875 12.1277Z" fill="white"/>
</svg>
