<svg width="42" height="42" viewBox="0 0 42 42" fill="none" xmlns="http://www.w3.org/2000/svg">
<path d="M20.8339 7.875C25.0725 7.875 28.0317 10.7958 28.0317 14.9816V27.0184C28.0317 31.2042 25.0725 34.125 20.8339 34.125H10.6978C6.45928 34.125 3.5 31.2042 3.5 27.0184V14.9816C3.5 10.7958 6.45928 7.875 10.6978 7.875H20.8339ZM34.9265 12.0382C35.6947 11.6474 36.596 11.6882 37.3292 12.1502C38.0625 12.6103 38.5 13.4098 38.5 14.2839V27.7172C38.5 28.593 38.0625 29.3908 37.3292 29.8509C36.9285 30.1014 36.4805 30.2293 36.029 30.2293C35.6527 30.2293 35.2765 30.1405 34.9247 29.9611L32.3329 28.6535C31.3739 28.1666 30.7789 27.1895 30.7789 26.104V15.8953C30.7789 14.808 31.3739 13.8309 32.3329 13.3476L34.9265 12.0382Z" fill="white"/>
</svg>
