<svg width="42" height="42" viewBox="0 0 42 42" fill="none" xmlns="http://www.w3.org/2000/svg">
<path d="M33.1817 4.51665C33.0744 4.51958 32.9678 4.53313 32.8634 4.55603C32.4451 4.64775 32.0612 4.89616 31.8134 5.2779L29.2376 9.24001H5.04002C3.65066 9.24001 2.52002 10.3707 2.52002 11.76V34.44C2.52002 35.8294 3.65066 36.96 5.04002 36.96H36.96C38.3494 36.96 39.48 35.8294 39.48 34.44V11.76C39.48 10.3707 38.3494 9.24001 36.96 9.24001H36.8895L37.2192 8.71993C37.7117 7.94301 37.4743 6.89076 36.6975 6.40009L34.1201 4.77259H34.1184C33.8302 4.5908 33.5033 4.50787 33.1817 4.51665ZM33.2227 6.19337L35.8001 7.82087L28.7077 19.0181L25.958 17.3677L33.2227 6.19337ZM11.1842 17.64C16.3443 17.64 17.1263 24.36 20.5308 24.36C22.2342 24.36 23.1124 23.6628 23.6693 23.1656C23.7733 23.3122 23.9215 23.4215 24.0921 23.4776C24.2628 23.5337 24.447 23.5336 24.6176 23.4774C24.087 24.6202 22.1823 26.88 19.6826 26.88C14.5872 26.88 14.5091 20.16 10.336 20.16C8.09988 20.16 7.0753 21.84 6.51166 21.84C6.14038 21.84 6.09002 21.6048 6.09002 21.42C6.09002 20.5615 7.97536 17.64 11.1842 17.64ZM25.5035 19.0526L27.2885 20.1239L25.3231 21.1952L25.5035 19.0526Z" fill="white"/>
</svg>
